<svg viewBox="0 0 500 500" fill="none" xmlns="http://www.w3.org/2000/svg" width="200" height="200">
<rect width="500" height="500" rx="40" fill="white"/>
<g filter="url(#filter0_d_1_10)">
<path d="M224.226 154.259L121 233.252L222.031 322.884C236.967 336.135 259.387 336.341 274.566 323.368L380 233.252L272.271 153.829C257.944 143.267 238.361 143.442 224.226 154.259Z" fill="#FFE1BE"/>
<path d="M224.226 154.259L121 233.252L222.031 322.884C236.967 336.135 259.387 336.341 274.566 323.368L380 233.252L272.271 153.829C257.944 143.267 238.361 143.442 224.226 154.259Z" stroke="#201305" stroke-width="2" stroke-linejoin="bevel"/>
</g>
<g filter="url(#filter1_d_1_10)">
<path d="M224.154 115.401L121 194.715L221.961 284.712C236.92 298.046 259.436 298.254 274.638 285.198L380 194.715L272.345 114.969C257.988 104.334 238.319 104.511 224.154 115.401Z" fill="#64A2D0"/>
<path d="M224.154 115.401L121 194.715L221.961 284.712C236.92 298.046 259.436 298.254 274.638 285.198L380 194.715L272.345 114.969C257.988 104.334 238.319 104.511 224.154 115.401Z" stroke="#201305" stroke-width="2" stroke-linejoin="bevel"/>
</g>
<g filter="url(#filter2_d_1_10)">
<path d="M224.154 71.4013L121 150.715L221.961 240.712C236.92 254.046 259.436 254.254 274.638 241.198L380 150.715L272.345 70.9695C257.988 60.3343 238.319 60.5106 224.154 71.4013Z" fill="#F5602F"/>
<path d="M224.154 71.4013L121 150.715L221.961 240.712C236.92 254.046 259.436 254.254 274.638 241.198L380 150.715L272.345 70.9695C257.988 60.3343 238.319 60.5106 224.154 71.4013Z" stroke="#201305" stroke-width="2" stroke-linejoin="bevel"/>
</g>
<path d="M140.754 407.26L132.594 414.7V424H129.594V379.48H132.594V410.98L152.634 392.68H156.474L142.974 405.34L157.794 424H154.074L140.754 407.26ZM164.34 392.68H167.34V424H164.34V392.68ZM165.84 385.06C165.16 385.06 164.58 384.84 164.1 384.4C163.62 383.92 163.38 383.34 163.38 382.66C163.38 381.98 163.62 381.4 164.1 380.92C164.58 380.44 165.16 380.2 165.84 380.2C166.52 380.2 167.1 380.44 167.58 380.92C168.06 381.36 168.3 381.92 168.3 382.6C168.3 383.28 168.06 383.86 167.58 384.34C167.1 384.82 166.52 385.06 165.84 385.06ZM194.565 422.02C193.805 422.74 192.845 423.3 191.685 423.7C190.565 424.06 189.385 424.24 188.145 424.24C185.425 424.24 183.325 423.5 181.845 422.02C180.365 420.5 179.625 418.4 179.625 415.72V385.84H182.625V392.68H192.585V395.26H182.625V415.42C182.625 417.46 183.105 419.02 184.065 420.1C185.065 421.14 186.525 421.66 188.445 421.66C190.405 421.66 192.025 421.08 193.305 419.92L194.565 422.02ZM199.669 406.54H215.089V409.24H199.669V406.54ZM233.081 424.24C230.561 424.24 228.161 423.86 225.881 423.1C223.601 422.34 221.821 421.38 220.541 420.22L221.921 417.82C223.201 418.9 224.841 419.8 226.841 420.52C228.881 421.24 231.001 421.6 233.201 421.6C236.361 421.6 238.681 421.08 240.161 420.04C241.681 419 242.441 417.56 242.441 415.72C242.441 414.4 242.021 413.36 241.181 412.6C240.381 411.84 239.381 411.28 238.181 410.92C236.981 410.56 235.321 410.18 233.201 409.78C230.721 409.34 228.721 408.86 227.201 408.34C225.681 407.82 224.381 406.98 223.301 405.82C222.221 404.66 221.681 403.06 221.681 401.02C221.681 398.54 222.701 396.5 224.741 394.9C226.821 393.26 229.761 392.44 233.561 392.44C235.561 392.44 237.541 392.72 239.501 393.28C241.461 393.84 243.061 394.58 244.301 395.5L242.921 397.9C241.641 396.98 240.181 396.28 238.541 395.8C236.901 395.32 235.221 395.08 233.501 395.08C230.581 395.08 228.381 395.62 226.901 396.7C225.421 397.78 224.681 399.2 224.681 400.96C224.681 402.36 225.101 403.46 225.941 404.26C226.781 405.02 227.801 405.6 229.001 406C230.241 406.36 231.961 406.76 234.161 407.2C236.601 407.64 238.561 408.12 240.041 408.64C241.561 409.12 242.841 409.92 243.881 411.04C244.921 412.16 245.441 413.7 245.441 415.66C245.441 418.26 244.361 420.34 242.201 421.9C240.041 423.46 237.001 424.24 233.081 424.24ZM268.393 422.02C267.633 422.74 266.673 423.3 265.513 423.7C264.393 424.06 263.213 424.24 261.973 424.24C259.253 424.24 257.153 423.5 255.673 422.02C254.193 420.5 253.453 418.4 253.453 415.72V385.84H256.453V392.68H266.413V395.26H256.453V415.42C256.453 417.46 256.933 419.02 257.893 420.1C258.893 421.14 260.353 421.66 262.273 421.66C264.233 421.66 265.853 421.08 267.133 419.92L268.393 422.02ZM303.45 392.68V424H300.51V416.62C299.27 419.06 297.53 420.94 295.29 422.26C293.05 423.58 290.51 424.24 287.67 424.24C284.75 424.24 282.11 423.56 279.75 422.2C277.39 420.84 275.53 418.96 274.17 416.56C272.85 414.16 272.19 411.42 272.19 408.34C272.19 405.26 272.85 402.52 274.17 400.12C275.53 397.68 277.39 395.8 279.75 394.48C282.11 393.12 284.75 392.44 287.67 392.44C290.47 392.44 292.97 393.1 295.17 394.42C297.41 395.74 299.17 397.58 300.45 399.94V392.68H303.45ZM287.85 421.54C290.25 421.54 292.39 420.98 294.27 419.86C296.19 418.74 297.69 417.18 298.77 415.18C299.89 413.18 300.45 410.9 300.45 408.34C300.45 405.78 299.89 403.5 298.77 401.5C297.69 399.5 296.19 397.94 294.27 396.82C292.39 395.7 290.25 395.14 287.85 395.14C285.45 395.14 283.29 395.7 281.37 396.82C279.49 397.94 277.99 399.5 276.87 401.5C275.79 403.5 275.25 405.78 275.25 408.34C275.25 410.9 275.79 413.18 276.87 415.18C277.99 417.18 279.49 418.74 281.37 419.86C283.29 420.98 285.45 421.54 287.85 421.54ZM328.518 424.24C325.478 424.24 322.758 423.56 320.358 422.2C317.958 420.84 316.078 418.96 314.718 416.56C313.358 414.12 312.678 411.38 312.678 408.34C312.678 405.26 313.358 402.52 314.718 400.12C316.078 397.68 317.958 395.8 320.358 394.48C322.758 393.12 325.478 392.44 328.518 392.44C331.038 392.44 333.318 392.94 335.358 393.94C337.438 394.9 339.118 396.32 340.398 398.2L338.178 399.82C337.058 398.26 335.658 397.1 333.978 396.34C332.338 395.54 330.518 395.14 328.518 395.14C326.078 395.14 323.878 395.7 321.918 396.82C319.998 397.9 318.478 399.44 317.358 401.44C316.278 403.44 315.738 405.74 315.738 408.34C315.738 410.94 316.278 413.24 317.358 415.24C318.478 417.24 319.998 418.8 321.918 419.92C323.878 421 326.078 421.54 328.518 421.54C330.518 421.54 332.338 421.16 333.978 420.4C335.658 419.6 337.058 418.42 338.178 416.86L340.398 418.48C339.118 420.36 337.438 421.8 335.358 422.8C333.318 423.76 331.038 424.24 328.518 424.24ZM360.012 407.26L351.852 414.7V424H348.852V379.48H351.852V410.98L371.892 392.68H375.732L362.232 405.34L377.052 424H373.332L360.012 407.26Z" fill="#201305"/>
<defs>
<filter id="filter0_d_1_10" x="116.336" y="145.026" width="268.313" height="196.936" filterUnits="userSpaceOnUse" color-interpolation-filters="sRGB">
<feFlood flood-opacity="0" result="BackgroundImageFix"/>
<feColorMatrix in="SourceAlpha" type="matrix" values="0 0 0 0 0 0 0 0 0 0 0 0 0 0 0 0 0 0 127 0" result="hardAlpha"/>
<feOffset dy="4"/>
<feGaussianBlur stdDeviation="2"/>
<feComposite in2="hardAlpha" operator="out"/>
<feColorMatrix type="matrix" values="0 0 0 0 0 0 0 0 0 0 0 0 0 0 0 0 0 0 0.25 0"/>
<feBlend mode="normal" in2="BackgroundImageFix" result="effect1_dropShadow_1_10"/>
<feBlend mode="normal" in="SourceGraphic" in2="effect1_dropShadow_1_10" result="shape"/>
</filter>
<filter id="filter1_d_1_10" x="116.335" y="106.112" width="268.317" height="197.741" filterUnits="userSpaceOnUse" color-interpolation-filters="sRGB">
<feFlood flood-opacity="0" result="BackgroundImageFix"/>
<feColorMatrix in="SourceAlpha" type="matrix" values="0 0 0 0 0 0 0 0 0 0 0 0 0 0 0 0 0 0 127 0" result="hardAlpha"/>
<feOffset dy="4"/>
<feGaussianBlur stdDeviation="2"/>
<feComposite in2="hardAlpha" operator="out"/>
<feColorMatrix type="matrix" values="0 0 0 0 0 0 0 0 0 0 0 0 0 0 0 0 0 0 0.25 0"/>
<feBlend mode="normal" in2="BackgroundImageFix" result="effect1_dropShadow_1_10"/>
<feBlend mode="normal" in="SourceGraphic" in2="effect1_dropShadow_1_10" result="shape"/>
</filter>
<filter id="filter2_d_1_10" x="116.335" y="62.1116" width="268.317" height="197.741" filterUnits="userSpaceOnUse" color-interpolation-filters="sRGB">
<feFlood flood-opacity="0" result="BackgroundImageFix"/>
<feColorMatrix in="SourceAlpha" type="matrix" values="0 0 0 0 0 0 0 0 0 0 0 0 0 0 0 0 0 0 127 0" result="hardAlpha"/>
<feOffset dy="4"/>
<feGaussianBlur stdDeviation="2"/>
<feComposite in2="hardAlpha" operator="out"/>
<feColorMatrix type="matrix" values="0 0 0 0 0 0 0 0 0 0 0 0 0 0 0 0 0 0 0.25 0"/>
<feBlend mode="normal" in2="BackgroundImageFix" result="effect1_dropShadow_1_10"/>
<feBlend mode="normal" in="SourceGraphic" in2="effect1_dropShadow_1_10" result="shape"/>
</filter>
</defs>
</svg>